HIERARCHY
ROOT Hips
{
 OFFSET 0.000000 0.000000 0.000000
 CHANNELS 6 Xposition Yposition Zposition Yrotation Xrotation Zrotation
 JOINT Chest
 {
  OFFSET 0.000000 9.585900 0.002600
  CHANNELS 3 Yrotation Xrotation Zrotation
  JOINT Chest2
  {
   OFFSET 0.000000 9.601200 -0.005300
   CHANNELS 3 Yrotation Xrotation Zrotation
   JOINT Chest3
   {
    OFFSET 0.000000 9.561800 0.000000
    CHANNELS 3 Yrotation Xrotation Zrotation
    JOINT Chest4
    {
     OFFSET 0.000000 9.552100 0.000000
     CHANNELS 3 Yrotation Xrotation Zrotation
     JOINT Neck
     {
      OFFSET 0.000000 14.453000 0.000000
      CHANNELS 3 Yrotation Xrotation Zrotation
      JOINT Head
      {
       OFFSET 0.000000 8.936500 -0.011300
       CHANNELS 3 Yrotation Xrotation Zrotation
       End Site
       {
        OFFSET 0.000000 17.073600 -0.006000
       }
      }
     }
     JOINT RightCollar
     {
      OFFSET -2.921100 9.558500 0.000000
      CHANNELS 3 Yrotation Xrotation Zrotation
      JOINT RightShoulder
      {
       OFFSET -13.519700 0.000000 0.000000
       CHANNELS 3 Yrotation Xrotation Zrotation
       JOINT RightElbow
       {
        OFFSET 0.000000 -29.696600 0.000000
        CHANNELS 3 Yrotation Xrotation Zrotation
        JOINT RightWrist
        {
         OFFSET 0.000000 -24.004700 0.000000
         CHANNELS 3 Yrotation Xrotation Zrotation
         End Site
         {
          OFFSET 0.000000 -17.728500 0.000000
         }
        }
       }
      }
     }
     JOINT LeftCollar
     {
      OFFSET 2.921100 9.558500 0.000000
      CHANNELS 3 Yrotation Xrotation Zrotation
      JOINT LeftShoulder
      {
       OFFSET 13.519700 0.000000 0.000000
       CHANNELS 3 Yrotation Xrotation Zrotation
       JOINT LeftElbow
       {
        OFFSET 0.000000 -29.696600 0.000000
        CHANNELS 3 Yrotation Xrotation Zrotation
        JOINT LeftWrist
        {
         OFFSET 0.000000 -24.004700 0.000000
         CHANNELS 3 Yrotation Xrotation Zrotation
         End Site
         {
          OFFSET 0.000000 -17.728500 0.000000
         }
        }
       }
      }
     }
    }
   }
  }
 }
 JOINT RightHip
 {
  OFFSET -7.771700 -0.012900 -0.001300
  CHANNELS 3 Yrotation Xrotation Zrotation
  JOINT RightKnee
  {
   OFFSET 0.000000 -40.869800 0.001200
   CHANNELS 3 Yrotation Xrotation Zrotation
   JOINT RightAnkle
   {
    OFFSET 0.000000 -39.717900 0.002100
    CHANNELS 3 Yrotation Xrotation Zrotation
    JOINT RightToe
    {
     OFFSET 0.000000 -4.965400 11.033500
     CHANNELS 3 Yrotation Xrotation Zrotation
     End Site
     {
      OFFSET 0.000000 -1.423100 5.872300
     }
    }
   }
  }
 }
 JOINT LeftHip
 {
  OFFSET 7.771700 -0.012900 -0.001300
  CHANNELS 3 Yrotation Xrotation Zrotation
  JOINT LeftKnee
  {
   OFFSET 0.000000 -40.869800 0.001200
   CHANNELS 3 Yrotation Xrotation Zrotation
   JOINT LeftAnkle
   {
    OFFSET 0.000000 -39.717900 0.002100
    CHANNELS 3 Yrotation Xrotation Zrotation
    JOINT LeftToe
    {
     OFFSET 0.000000 -4.965400 11.033500
     CHANNELS 3 Yrotation Xrotation Zrotation
     End Site
     {
      OFFSET 0.000000 -1.423100 5.872300
     }
    }
   }
  }
 }
}
MOTION
Frames: 13
Frame Time: 0.008333
0.000000 85.388000 0.000000 0.000000 -5.767877 0.000000 0.000000 11.653817 0.000000 0.000000 -5.885947 0.000000 0.000000 -0.000000 0.000000 0.000000 -0.000000 0.000000 0.000000 12.528835 0.000000 0.000000 0.711642 0.000000 0.000000 -0.000000 0.000000 0.000000 0.000000 -90.000000 0.000000 -2.309062 0.000000 0.000000 2.309062 0.000000 0.000000 -0.000000 0.000000 0.000000 -0.000000 90.000000 0.000000 -2.309062 0.000000 0.000000 2.309062 0.000000 0.000000 8.520406 0.000000 0.000000 1.905762 0.000000 -0.000000 -4.658285 0.000000 0.000000 -0.000000 0.000000 0.000000 8.520406 0.000000 0.000000 1.905762 0.000000 -0.000000 -4.658285 0.000000 0.000000 -0.000000 0.000000
-45.582797 46.612818 10.692553 177.664971 -31.691557 -3.202082 -0.075553 18.674066 1.748380 -0.094739 2.073815 0.200833 -0.083322 3.526728 0.389577 -0.174219 16.155792 1.784068 -1.579765 17.064159 1.251346 -3.325498 -4.011524 2.850791 -0.663092 2.356495 -2.353249 0.570424 -9.259508 -15.463116 -82.778859 -73.659263 125.076276 3.096598 3.629753 -15.735433 -0.712459 -0.847942 1.208276 -0.385527 -4.482796 16.108486 133.395163 -75.989231 -168.793070 -7.477570 6.763868 -3.215432 -0.396975 -55.588375 -8.050163 -171.943172 80.776949 -163.307368 -7.567169 -12.502743 -5.135847 0.174537 0.140870 -0.029584 -0.715300 -57.107782 10.971723 -110.880264 81.747469 -115.541567 5.167420 -6.716401 5.868714 -0.346947 0.249361 -0.130637
-45.567481 46.619108 10.689923 177.629605 -31.717095 -3.256708 -0.061788 18.640628 1.777298 -0.104121 2.066814 0.198826 -0.055395 3.557041 0.408235 -0.221567 16.084137 1.767650 -1.761985 17.158880 1.299030 -3.697069 -3.865585 2.999075 -0.663488 2.420613 -2.332996 0.868664 -9.264307 -14.993666 -83.605058 -74.171982 125.606864 3.032230 3.730660 -16.465598 -0.732902 -0.796365 1.171521 -0.451223 -4.381074 16.118416 134.005968 -76.053883 -169.432726 -7.550200 6.770826 -3.322789 -0.431198 -55.580458 -7.875238 -171.662972 80.714770 -163.007848 -7.586490 -12.691942 -5.113259 0.172942 0.222248 -0.014351 -0.780170 -57.084008 11.125311 -110.858019 81.714633 -115.522506 5.158171 -6.713538 5.867905 -0.340437 0.245052 -0.123887
-45.553130 46.627070 10.687882 177.592365 -31.738919 -3.323346 -0.103021 18.553200 1.765424 -0.068944 2.108740 0.226939 -0.067841 3.532066 0.400505 -0.206450 16.088230 1.780695 -1.944336 17.241369 1.335554 -4.043122 -3.703141 3.124848 -0.662578 2.454074 -2.313531 1.179562 -9.298662 -14.584047 -84.511755 -74.664393 126.208982 2.978173 3.909267 -17.156407 -0.759352 -0.763722 1.137245 -0.512583 -4.280848 16.132342 134.509607 -76.115784 -169.971888 -7.618382 6.800333 -3.402922 -0.507906 -55.581706 -7.681804 -171.553102 80.642420 -162.869227 -7.545445 -12.948021 -5.109439 0.111121 0.335123 -0.022527 -0.862197 -57.062003 11.303822 -110.832579 81.683829 -115.500674 5.105343 -6.675929 5.849933 -0.292664 0.210258 -0.094525
-45.543069 46.641525 10.678947 177.569259 -31.807984 -3.398423 -0.146576 18.540444 1.767605 -0.052882 2.120123 0.237507 -0.082682 3.506165 0.391895 -0.183442 16.092278 1.795604 -2.110780 17.332768 1.363231 -4.356017 -3.524727 3.228052 -0.648333 2.485651 -2.291670 1.479791 -9.371278 -14.238171 -85.457120 -75.114568 126.860557 2.928758 4.172945 -17.767666 -0.778902 -0.728326 1.108493 -0.570628 -4.179336 16.150121 134.885408 -76.171578 -170.392029 -7.680545 6.846273 -3.452073 -0.528916 -55.526841 -7.435444 -171.247748 80.530053 -162.548986 -7.638666 -13.352386 -5.054102 0.105391 0.516682 -0.001231 -0.951640 -56.990711 11.484166 -110.861917 81.654203 -115.545279 5.085232 -6.674832 5.868674 -0.289443 0.193038 -0.088150
-45.538617 46.658907 10.669365 177.516520 -31.882953 -3.459929 -0.158312 18.545338 1.780513 -0.052043 2.115697 0.237983 -0.081399 3.499140 0.392836 -0.177030 16.077772 1.802622 -2.258625 17.430193 1.381841 -4.630888 -3.336005 3.307628 -0.593061 2.552083 -2.275598 1.730376 -9.520302 -13.952753 -86.400323 -75.505033 127.531392 2.890497 4.510645 -18.270034 -0.790994 -0.695864 1.083690 -0.626328 -4.072921 16.170731 135.125145 -76.221659 -170.686212 -7.736739 6.903944 -3.470873 -0.538470 -55.465385 -7.190350 -170.957965 80.409129 -162.225641 -7.703112 -13.856118 -5.028756 0.088901 0.736660 0.015997 -1.014908 -56.913754 11.669149 -110.925412 81.609936 -115.645106 5.090922 -6.683534 5.914479 -0.291070 0.175743 -0.095430
-45.540809 46.676132 10.664336 177.466115 -31.926179 -3.523550 -0.182354 18.518414 1.791614 -0.051284 2.111586 0.238496 -0.080180 3.492647 0.393770 -0.171119 16.064291 1.809304 -2.386240 17.529447 1.391849 -4.865367 -3.145072 3.364117 -0.585348 2.567594 -2.246929 2.024736 -9.662732 -13.748691 -87.309139 -75.827230 128.196324 2.882312 4.898646 -18.657521 -0.796316 -0.671844 1.063334 -0.682345 -3.960960 16.191652 135.257329 -76.271501 -170.876463 -7.786748 6.970230 -3.466406 -0.569369 -55.438941 -6.929435 -170.688946 80.283087 -161.926628 -7.751508 -14.438383 -5.012276 0.065106 0.976295 0.027159 -1.094555 -56.869583 11.840149 -110.935465 81.591132 -115.659481 5.069437 -6.654577 5.903255 -0.270102 0.155721 -0.089091
-45.549905 46.696548 10.658525 177.394265 -31.977378 -3.573572 -0.197725 18.499522 1.797936 -0.050470 2.107780 0.238768 -0.078778 3.486632 0.394319 -0.164771 16.051871 1.814054 -2.492992 17.627377 1.395606 -5.059153 -2.957697 3.401787 -0.576703 2.578096 -2.216728 2.302204 -9.840121 -13.607018 -88.169395 -76.075600 128.849474 2.923160 5.314229 -18.934430 -0.796381 -0.656773 1.049448 -0.742669 -3.843577 16.212808 135.335742 -76.324807 -171.006879 -7.833026 7.041742 -3.450044 -0.595216 -55.410771 -6.643650 -170.454640 80.152212 -161.680845 -7.811710 -15.079482 -4.987746 0.042402 1.215019 0.034863 -1.150302 -56.815399 12.009551 -111.002196 81.571065 -115.751307 5.043242 -6.641866 5.931063 -0.248025 0.129464 -0.091477
-45.562485 46.722338 10.648930 177.272622 -32.062270 -3.611013 -0.172833 18.512924 1.817360 -0.049519 2.104064 0.238687 -0.077193 3.480772 0.394232 -0.098864 16.085607 1.835946 -2.635589 17.676086 1.393616 -5.215262 -2.774528 3.424712 -0.599540 2.555042 -2.196534 2.524952 -10.067311 -13.512158 -88.999990 -76.256409 129.521333 3.010603 5.731147 -19.122634 -0.846616 -0.695036 1.037537 -0.808202 -3.724587 16.237744 135.396920 -76.382251 -171.108340 -7.878656 7.118104 -3.433525 -0.609256 -55.358148 -6.308708 -170.268032 80.024067 -161.503219 -7.883772 -15.737006 -4.949947 0.014886 1.424701 0.036541 -1.173452 -56.727814 12.217036 -111.133884 81.506861 -115.940041 5.061537 -6.654455 5.982038 -0.265229 0.093738 -0.085206
-45.573410 46.747504 10.645911 177.169578 -32.108346 -3.700132 -0.157359 18.489937 1.880433 -0.048403 2.100233 0.238380 -0.075395 3.474796 0.393734 -0.119732 16.050707 1.826653 -2.679159 17.795086 1.390642 -5.340270 -2.594140 3.436182 -0.540563 2.603475 -2.176229 2.713584 -10.328948 -13.461507 -89.871317 -76.392745 130.278898 3.123516 6.120695 -19.255275 -0.810087 -0.664276 1.032220 -0.878611 -3.608513 16.269600 135.473411 -76.441652 -171.212613 -7.922299 7.200383 -3.421584 -0.695938 -55.348055 -5.889389 -170.122138 79.905276 -161.380538 -7.953777 -16.372015 -4.896374 -0.024729 1.584223 0.030431 -1.295539 -56.669511 12.534903 -111.026170 81.430564 -115.873429 4.966642 -6.635867 5.985969 -0.166183 0.063297 -0.042774
-45.593396 46.774800 10.642881 177.052050 -32.158305 -3.750749 -0.143823 18.473301 1.909116 -0.047067 2.096433 0.237981 -0.073228 3.468902 0.393094 -0.139802 16.015738 1.816619 -2.707618 17.913035 1.384802 -5.437936 -2.417055 3.437954 -0.483731 2.652970 -2.156984 2.879872 -10.622686 -13.453038 -90.909611 -76.517867 131.225331 3.243215 6.463445 -19.358554 -0.769007 -0.636216 1.028110 -0.950204 -3.494251 16.309687 135.593552 -76.497321 -171.348862 -7.964214 7.286863 -3.416419 -0.697070 -55.338115 -5.531414 -170.021962 79.796143 -161.309307 -8.031969 -16.995557 -4.828727 -0.060105 1.713587 0.025559 -1.374660 -56.607629 12.782844 -110.964879 81.372397 -115.852724 4.935633 -6.636361 5.999591 -0.120163 0.045573 -0.026392
-45.617330 46.802419 10.643097 176.937497 -32.191509 -3.796749 -0.143701 18.445544 1.926284 -0.045345 2.093009 0.237602 -0.070476 3.463516 0.392503 -0.063540 16.042968 1.838864 -2.809910 17.965027 1.371818 -5.506751 -2.244381 3.427892 -0.518324 2.639455 -2.141715 3.037019 -10.943385 -13.485240 -92.273530 -76.663750 132.499302 3.360356 6.751576 -19.456991 -0.811118 -0.674904 1.019248 -1.017622 -3.382817 16.359006 135.756328 -76.543969 -171.518413 -8.009198 7.371775 -3.420831 -0.653934 -55.341483 -5.193363 -169.985178 79.704818 -161.299038 -8.115812 -17.597842 -4.749438 -0.095547 1.812616 0.021018 -1.443292 -56.567504 12.988626 -110.957030 81.350350 -115.866719 4.913655 -6.614506 5.998300 -0.090799 0.015941 -0.010296
-45.641905 46.831522 10.644574 176.813793 -32.224642 -3.843958 -0.141228 18.422967 1.945485 -0.043489 2.090337 0.237171 -0.067396 3.459179 0.391850 -0.081082 16.014638 1.827761 -2.805879 18.075401 1.357338 -5.545320 -2.077757 3.402957 -0.464198 2.685732 -2.119078 3.195544 -11.283804 -13.556424 -94.117311 -76.849348 134.235823 3.470976 6.985060 -19.574597 -0.757365 -0.651649 1.017509 -1.078729 -3.277796 16.416261 135.962610 -76.578774 -171.725939 -8.057775 7.445706 -3.435026 -0.576383 -55.337454 -4.845763 -170.101520 79.641402 -161.435888 -8.215462 -18.178862 -4.664689 -0.127892 1.886524 0.017448 -1.515263 -56.527987 13.205867 -110.951241 81.328443 -115.881049 4.877951 -6.586275 6.017643 -0.042069 -0.019017 -0.012482
